<svg width="25" height="25" viewBox="0 0 25 25" fill="none" xmlns="http://www.w3.org/2000/svg">
<path fill-rule="evenodd" clip-rule="evenodd" d="M12.5 4.6875C8.18528 4.6875 4.6875 8.18528 4.6875 12.5C4.6875 16.8147 8.18528 20.3125 12.5 20.3125C16.8147 20.3125 20.3125 16.8147 20.3125 12.5C20.3125 8.18528 16.8147 4.6875 12.5 4.6875ZM3.125 12.5C3.125 7.32233 7.32233 3.125 12.5 3.125C17.6777 3.125 21.875 7.32233 21.875 12.5C21.875 17.6777 17.6777 21.875 12.5 21.875C7.32233 21.875 3.125 17.6777 3.125 12.5Z" fill="#D9D9D9"/>
<path fill-rule="evenodd" clip-rule="evenodd" d="M12.5 1.17188C12.9315 1.17188 13.2812 1.52165 13.2812 1.95312V5.85938C13.2812 6.29085 12.9315 6.64062 12.5 6.64062C12.0685 6.64062 11.7188 6.29085 11.7188 5.85938V1.95312C11.7188 1.52165 12.0685 1.17188 12.5 1.17188Z" fill="#D9D9D9"/>
<path fill-rule="evenodd" clip-rule="evenodd" d="M1.17188 12.5C1.17188 12.0685 1.52165 11.7188 1.95312 11.7188H5.85938C6.29085 11.7188 6.64062 12.0685 6.64062 12.5C6.64062 12.9315 6.29085 13.2812 5.85938 13.2812H1.95312C1.52165 13.2812 1.17188 12.9315 1.17188 12.5Z" fill="#D9D9D9"/>
<path fill-rule="evenodd" clip-rule="evenodd" d="M12.5 18.3594C12.9315 18.3594 13.2812 18.7092 13.2812 19.1406V23.0469C13.2812 23.4783 12.9315 23.8281 12.5 23.8281C12.0685 23.8281 11.7188 23.4783 11.7188 23.0469V19.1406C11.7188 18.7092 12.0685 18.3594 12.5 18.3594Z" fill="#D9D9D9"/>
<path fill-rule="evenodd" clip-rule="evenodd" d="M18.3594 12.5C18.3594 12.0685 18.7092 11.7188 19.1406 11.7188H23.0469C23.4783 11.7188 23.8281 12.0685 23.8281 12.5C23.8281 12.9315 23.4783 13.2812 23.0469 13.2812H19.1406C18.7092 13.2812 18.3594 12.9315 18.3594 12.5Z" fill="#D9D9D9"/>
<path fill-rule="evenodd" clip-rule="evenodd" d="M12.5 10.1562C11.2056 10.1562 10.1562 11.2056 10.1562 12.5C10.1562 13.7944 11.2056 14.8438 12.5 14.8438C13.7944 14.8438 14.8438 13.7944 14.8438 12.5C14.8438 11.2056 13.7944 10.1562 12.5 10.1562ZM8.59375 12.5C8.59375 10.3426 10.3426 8.59375 12.5 8.59375C14.6574 8.59375 16.4062 10.3426 16.4062 12.5C16.4062 14.6574 14.6574 16.4062 12.5 16.4062C10.3426 16.4062 8.59375 14.6574 8.59375 12.5Z" fill="#D9D9D9"/>
</svg>
