<svg width="17" height="17" viewBox="0 0 17 17" fill="none" xmlns="http://www.w3.org/2000/svg">
<path d="M14.0979 0.497918C14.7618 -0.165973 15.8382 -0.165973 16.5021 0.497918C17.1056 1.10146 17.1605 2.04589 16.6667 2.71141L16.5021 2.90208L2.90208 16.5021C2.23819 17.166 1.16181 17.166 0.497918 16.5021C-0.105619 15.8985 -0.160486 14.9541 0.333317 14.2886L0.497918 14.0979L14.0979 0.497918Z" fill="white"/>
<path d="M0.497918 0.497918C1.10146 -0.105619 2.04589 -0.160486 2.71141 0.333317L2.90208 0.497918L16.5021 14.0979C17.166 14.7618 17.166 15.8382 16.5021 16.5021C15.8985 17.1056 14.9541 17.1605 14.2886 16.6667L14.0979 16.5021L0.497918 2.90208C-0.165973 2.23819 -0.165973 1.16181 0.497918 0.497918Z" fill="white"/>
</svg>
