<svg width="26" height="26" viewBox="0 0 26 26" fill="none" xmlns="http://www.w3.org/2000/svg">
<path fill-rule="evenodd" clip-rule="evenodd" d="M11.7812 4.0625C7.5183 4.0625 4.0625 7.5183 4.0625 11.7812C4.0625 16.0442 7.5183 19.5 11.7812 19.5C16.0442 19.5 19.5 16.0442 19.5 11.7812C19.5 7.5183 16.0442 4.0625 11.7812 4.0625ZM2.4375 11.7812C2.4375 6.62084 6.62084 2.4375 11.7812 2.4375C16.9417 2.4375 21.125 6.62084 21.125 11.7812C21.125 16.9417 16.9417 21.125 11.7812 21.125C6.62084 21.125 2.4375 16.9417 2.4375 11.7812Z" fill="#D9D9D9"/>
<path fill-rule="evenodd" clip-rule="evenodd" d="M17.2394 17.2396C17.5567 16.9223 18.0711 16.9223 18.3884 17.2396L23.3244 22.1755C23.6417 22.4928 23.6417 23.0073 23.3244 23.3246C23.0071 23.6419 22.4926 23.6419 22.1753 23.3246L17.2394 18.3886C16.9221 18.0713 16.9221 17.5569 17.2394 17.2396Z" fill="#D9D9D9"/>
</svg>
