<svg width="25" height="25" viewBox="0 0 25 25" fill="none" xmlns="http://www.w3.org/2000/svg">
<path fill-rule="evenodd" clip-rule="evenodd" d="M20.0229 6.97747C20.3159 6.67202 20.7915 6.67145 21.0852 6.97619C21.7837 7.70098 22.3379 8.56195 22.7161 9.5098C23.0942 10.4577 23.2889 11.4738 23.2889 12.5C23.2889 13.5262 23.0942 14.5423 22.7161 15.4901C22.3379 16.438 21.7837 17.2989 21.0852 18.0237C20.7915 18.3285 20.3159 18.3279 20.0229 18.0224C19.7298 17.717 19.7304 17.2223 20.0241 16.9176C20.5827 16.3379 21.026 15.6494 21.3284 14.8913C21.6308 14.1333 21.7864 13.3207 21.7864 12.5C21.7864 11.6793 21.6308 10.8666 21.3284 10.1086C21.026 9.35053 20.5827 8.66197 20.0241 8.08233C19.7304 7.77758 19.7298 7.28292 20.0229 6.97747Z" fill="#D9D9D9"/>
<path fill-rule="evenodd" clip-rule="evenodd" d="M14.6029 2.4232C14.8607 2.55429 15.0241 2.82662 15.0241 3.12501V21.875C15.0241 22.1734 14.8607 22.4457 14.6029 22.5768C14.3452 22.7079 14.0382 22.6749 13.8117 22.4917L7.25431 17.1875H3.00485C2.60638 17.1875 2.22424 17.0229 1.94249 16.7299C1.66073 16.4368 1.50244 16.0394 1.50244 15.625V9.37501C1.50244 8.96061 1.66073 8.56318 1.94249 8.27015C2.22424 7.97713 2.60638 7.81251 3.00485 7.81251H7.25431L13.8117 2.50832C14.0382 2.32513 14.3452 2.2921 14.6029 2.4232ZM13.5217 4.72238L7.97325 9.21044C7.84139 9.3171 7.67911 9.37501 7.51206 9.37501H3.00485V15.625H7.51206C7.67911 15.625 7.84139 15.6829 7.97325 15.7896L13.5217 20.2776V4.72238Z" fill="#D9D9D9"/>
<path fill-rule="evenodd" clip-rule="evenodd" d="M7.51206 7.8125C7.92693 7.8125 8.26326 8.16228 8.26326 8.59375V16.4062C8.26326 16.8377 7.92693 17.1875 7.51206 17.1875C7.09718 17.1875 6.76085 16.8377 6.76085 16.4062V8.59375C6.76085 8.16228 7.09718 7.8125 7.51206 7.8125Z" fill="#D9D9D9"/>
<path fill-rule="evenodd" clip-rule="evenodd" d="M17.3654 9.74164C17.6582 9.43596 18.1338 9.43501 18.4277 9.73952C18.7772 10.1015 19.0544 10.5317 19.2436 11.0055C19.4328 11.4792 19.5302 11.9871 19.5302 12.5C19.5302 13.013 19.4328 13.5209 19.2436 13.9946C19.0544 14.4683 18.7772 14.8985 18.4277 15.2606C18.1338 15.5651 17.6582 15.5641 17.3654 15.2584C17.0726 14.9528 17.0735 14.4581 17.3674 14.1536C17.5767 13.9367 17.7428 13.679 17.8561 13.3953C17.9694 13.1115 18.0278 12.8073 18.0278 12.5C18.0278 12.1928 17.9694 11.8885 17.8561 11.6048C17.7428 11.321 17.5767 11.0633 17.3674 10.8465C17.0735 10.542 17.0726 10.0473 17.3654 9.74164Z" fill="#D9D9D9"/>
</svg>
